<svg width="129" height="40" viewBox="0 0 129 40" xmlns="http://www.w3.org/2000/svg"><title>Logo</title><g fill="none" fill-rule="evenodd"><path d="M19.84.42C8.937.42.097 9.26.097 20.16H19.84V.42m0 39.482c10.905 0 19.745-8.84 19.745-19.74H19.84V39.9" fill="#0B0C0A"/><path d="M.1 20.16c0 10.905 8.84 19.745 19.74 19.745V20.16H.1m39.48 0C39.58 9.258 30.74.418 19.84.418V20.16h19.74" fill="#FB0"/><path d="M55.544 17.603l-2.715 3.07v7.188h-8.235V1.138h8.233v9.432l7.65-9.433H71.4l-9.315 10.33L72.187 27.86H61.24l-5.696-10.257m22.494-1.083c-4.028-.786-5.692-3.78-5.692-7.524 0-6.925 5.284-8.798 12.06-8.798 9.283 0 13.108 3.108 13.4 8.76H88.23c0-1.086-.496-1.76-1.255-2.134-.73-.414-1.665-.56-2.568-.56-2.454 0-3.3.785-3.3 1.91 0 .746.262 1.234 1.08 1.382l9.84 1.874c4.146.783 6.716 3.254 6.716 7.784 0 6.513-4.146 9.583-13.402 9.583-6.336 0-13.255-1.123-13.284-8.985h9.926c.03.9.293 1.498.877 1.91.61.375 1.516.56 2.802.56 2.568 0 3.27-.896 3.27-2.17 0-.786-.38-1.57-1.49-1.796L78.04 16.52m29.318 0c-4.03-.786-5.694-3.78-5.694-7.524 0-6.925 5.286-8.798 12.06-8.798 9.285 0 13.11 3.108 13.403 8.76h-9.578c0-1.086-.5-1.76-1.258-2.134-.73-.414-1.664-.56-2.57-.56-2.452 0-3.3.785-3.3 1.91 0 .746.264 1.234 1.08 1.382l9.84 1.874c4.147.783 6.717 3.254 6.717 7.784 0 6.513-4.147 9.583-13.4 9.583-6.34 0-13.258-1.123-13.288-8.985h9.926c.03.9.292 1.498.877 1.91.612.375 1.518.56 2.803.56 2.57 0 3.268-.896 3.268-2.17 0-.786-.378-1.57-1.488-1.796l-9.402-1.797" fill="#595A59"/><path d="M55.544 17.603l-2.715 3.07v7.188h-8.235V1.138h8.233v9.432l7.65-9.433H71.4l-9.315 10.33L72.187 27.86H61.24l-5.696-10.257m22.494-1.083c-4.028-.786-5.692-3.78-5.692-7.524 0-6.925 5.284-8.798 12.06-8.798 9.283 0 13.108 3.108 13.4 8.76H88.23c0-1.086-.496-1.76-1.255-2.134-.73-.414-1.665-.56-2.568-.56-2.454 0-3.3.785-3.3 1.91 0 .746.262 1.234 1.08 1.382l9.84 1.874c4.146.783 6.716 3.254 6.716 7.784 0 6.513-4.146 9.583-13.402 9.583-6.336 0-13.255-1.123-13.284-8.985h9.926c.03.9.293 1.498.877 1.91.61.375 1.516.56 2.802.56 2.568 0 3.27-.896 3.27-2.17 0-.786-.38-1.57-1.49-1.796L78.04 16.52m29.318 0c-4.03-.786-5.694-3.78-5.694-7.524 0-6.925 5.286-8.798 12.06-8.798 9.285 0 13.11 3.108 13.403 8.76h-9.578c0-1.086-.5-1.76-1.258-2.134-.73-.414-1.664-.56-2.57-.56-2.452 0-3.3.785-3.3 1.91 0 .746.264 1.234 1.08 1.382l9.84 1.874c4.147.783 6.717 3.254 6.717 7.784 0 6.513-4.147 9.583-13.4 9.583-6.34 0-13.258-1.123-13.288-8.985h9.926c.03.9.292 1.498.877 1.91.612.375 1.518.56 2.803.56 2.57 0 3.268-.896 3.268-2.17 0-.786-.378-1.57-1.488-1.796l-9.402-1.797" fill="#0B0C0A"/><path d="M44.632 32.845h1.538v2.874h.018l1.613-2.876h1.727L47.5 36.108l2.185 3.702h-1.837l-1.66-3.193h-.018v3.193h-1.538v-6.965m5.728 0h3.78v1.217h-2.3v1.557h2.184v1.216H51.84v1.756h2.41v1.217h-3.89v-6.966m6.254 4.302l-1.988-4.3h1.763l1.05 2.693.973-2.696h1.725l-1.99 4.33v2.635h-1.536v-2.665" fill="#FB0"/><path d="M64.17 34.262c-.18-.1-.39-.185-.628-.254-.238-.07-.46-.105-.666-.105-.25 0-.457.06-.623.184-.166.124-.248.315-.248.574 0 .215.064.383.192.506s.287.233.478.33c.19.096.397.194.62.294.22.1.427.23.617.393s.35.373.48.63c.127.255.19.59.19 1.002 0 .332-.057.628-.173.887-.117.26-.278.48-.485.664-.206.183-.448.323-.726.42-.28.096-.58.144-.906.144-.4 0-.758-.036-1.073-.11-.315-.073-.545-.133-.69-.18l.086-1.356c.23.093.456.187.675.284.22.096.473.145.76.145.12 0 .236-.017.35-.05.118-.034.22-.083.31-.15.09-.066.164-.153.217-.26.053-.106.08-.23.08-.37 0-.225-.065-.403-.192-.532-.13-.13-.288-.24-.48-.34-.19-.094-.396-.19-.617-.287-.223-.097-.43-.225-.62-.384-.19-.16-.35-.37-.478-.625s-.193-.59-.193-1.003c0-.032.004-.105.014-.218s.038-.243.085-.39c.047-.146.117-.3.21-.464.095-.163.226-.31.395-.444.168-.133.38-.244.633-.334.253-.09.564-.135.932-.135.15 0 .288.007.413.02.126.014.25.03.37.05.123.02.243.045.362.075.12.03.25.062.394.095l-.066 1.297m4.896 3.99H67.01l-.45 1.556h-1.48l2.175-6.965h1.687l2.1 6.965h-1.575l-.403-1.556zm-.975-4.072h-.02l-.78 2.894h1.473l-.675-2.894zm3.627-1.337h3.628v1.217h-2.147v1.617h2.063v1.216H73.2v2.913h-1.48v-6.966m4.507 0h3.778v1.218h-2.297v1.557h2.184v1.216h-2.184v1.756h2.41v1.217h-3.89v-6.966m5.822 1.258h-1.426v-1.257h4.387v1.257h-1.423v5.708H82.05v-5.708m5.118 3.044l-1.988-4.3h1.763l1.05 2.693.975-2.696h1.725l-1.988 4.33v2.635h-1.537v-2.665" fill="#0B0C0A"/><path d="M94.724 34.262c-.18-.1-.39-.185-.628-.254-.237-.07-.46-.105-.666-.105-.25 0-.457.06-.623.184-.166.124-.25.315-.25.574 0 .215.065.383.194.506.13.123.29.233.48.33.19.096.397.194.62.294.22.1.427.23.617.393s.35.373.478.63c.128.255.193.59.193 1.002 0 .332-.058.628-.174.887-.116.26-.276.48-.483.664-.205.183-.447.323-.725.42-.278.096-.58.144-.905.144-.4 0-.76-.036-1.074-.11-.316-.073-.546-.133-.69-.18l.085-1.356c.233.093.458.187.677.284.22.096.472.145.76.145.118 0 .235-.017.35-.05.117-.034.22-.083.31-.15.09-.066.163-.153.216-.26.053-.106.08-.23.08-.37 0-.225-.064-.403-.192-.532-.13-.13-.287-.24-.48-.34-.19-.094-.395-.19-.616-.287-.222-.097-.43-.225-.62-.384-.19-.16-.35-.37-.477-.625-.128-.256-.193-.59-.193-1.003 0-.032.005-.105.015-.218.01-.113.036-.243.083-.39.047-.146.117-.3.21-.464.095-.163.226-.31.395-.444.168-.133.38-.244.632-.334.253-.09.563-.135.932-.135.15 0 .288.007.413.02.125.014.248.03.37.05.122.02.242.045.36.075.12.03.25.062.395.095l-.066 1.297m2.86 2.882l-1.988-4.3h1.763l1.05 2.693.972-2.696h1.726l-1.99 4.33v2.635H97.58v-2.665m7.56-2.883c-.18-.1-.39-.185-.628-.254-.238-.07-.46-.105-.666-.105-.25 0-.458.06-.623.184-.166.124-.25.315-.25.574 0 .215.065.383.194.506.128.123.287.233.478.33.19.096.397.194.618.294.222.1.43.23.62.393s.35.373.477.63c.128.255.192.59.192 1.002 0 .332-.057.628-.173.887-.118.26-.278.48-.485.664-.206.183-.448.323-.726.42-.28.096-.58.144-.906.144-.4 0-.758-.036-1.073-.11-.315-.073-.545-.133-.69-.18l.086-1.356c.23.093.456.187.675.284.22.096.473.145.76.145.12 0 .236-.017.35-.05.117-.034.22-.083.31-.15.09-.066.164-.153.217-.26.053-.106.08-.23.08-.37 0-.225-.065-.403-.193-.532-.128-.13-.287-.24-.478-.34-.19-.094-.397-.19-.618-.287-.223-.097-.43-.225-.62-.384-.19-.16-.35-.37-.48-.625-.127-.256-.19-.59-.19-1.003 0-.032.004-.105.014-.218s.037-.243.084-.39c.047-.146.117-.3.21-.464.095-.163.226-.31.394-.444.17-.133.38-.244.633-.334.253-.09.564-.135.933-.135.15 0 .288.007.413.02.125.014.25.03.37.05.122.02.242.045.36.075.12.03.25.062.395.095l-.066 1.297m2.428-.162h-1.425v-1.257h4.388v1.257h-1.423v5.708h-1.538v-5.708m3.73-1.257h3.778v1.217h-2.297v1.557h2.186v1.216h-2.184v1.756h2.41v1.217h-3.89v-6.966m10.208 1.458h-.02l-1.47 5.508h-1.014l-1.416-5.508h-.018v5.508h-1.407v-6.965h2.316l1.06 4.48h.02l1.144-4.48h2.212v6.965h-1.406v-5.508m6.206-.04c-.182-.1-.39-.185-.63-.254-.236-.07-.458-.105-.664-.105-.25 0-.458.06-.624.184-.165.124-.248.315-.248.574 0 .215.064.383.192.506s.287.233.478.33c.19.096.397.194.62.294.22.1.427.23.618.393.19.163.35.373.478.63.128.255.192.59.192 1.002 0 .332-.058.628-.173.887-.116.26-.277.48-.483.664-.207.183-.45.323-.727.42-.278.096-.58.144-.905.144-.4 0-.758-.036-1.073-.11-.316-.073-.546-.133-.69-.18l.085-1.356c.23.093.456.187.675.284.22.096.472.145.76.145.118 0 .236-.017.35-.05.117-.034.22-.083.31-.15.09-.066.163-.153.216-.26.053-.106.08-.23.08-.37 0-.225-.064-.403-.192-.532-.127-.13-.286-.24-.476-.34-.19-.094-.397-.19-.62-.287-.22-.097-.427-.225-.618-.384-.19-.16-.35-.37-.478-.625s-.192-.59-.192-1.003c0-.032.004-.105.014-.218.008-.113.036-.243.083-.39.047-.146.117-.3.21-.464.095-.163.226-.31.395-.444.17-.133.38-.244.633-.334.255-.09.566-.135.935-.135.15 0 .287.007.412.02.125.014.248.03.37.05.122.02.242.045.36.075.12.03.25.062.395.095l-.064 1.297" fill="#FB0"/></g></svg>