<svg xmlns="http://www.w3.org/2000/svg" xmlns:xlink="http://www.w3.org/1999/xlink" version="1.1" x="0px" y="0px" viewBox="0 0 100 100" style="enable-background:new 0 0 100 100;" xml:space="preserve"><path d="M71.3,6.3h-5c-6.3,0-12,4-16.3,11.5C45.7,10.3,40,6.3,33.8,6.3h-5C15.2,6.3,5,25.1,5,50s10.2,43.8,23.8,43.8h5  c6.3,0,12-4,16.3-11.5c4.3,7.4,10,11.5,16.3,11.5h5C84.8,93.8,95,74.9,95,50S84.8,6.3,71.3,6.3z M44.8,18.9  c-0.8,0.1-1.6,0.4-2.4,0.7c-0.2-0.5-0.6-0.8-1.2-0.8c-0.6,0-1.1,0.1-1.7,0.2l-3.7-7.4C39.1,12.3,42.2,14.9,44.8,18.9z M21.2,62.2  L15,49.7c0-4.3,0.4-8.5,1-12.4l4.1,8.3C20.1,47,20,48.5,20,50C20,54.3,20.4,58.5,21.2,62.2z M20.7,41l-3.8-7.7  c0.7-3.2,1.7-6.2,2.8-8.8l3.5,6.9C22,34.3,21.2,37.5,20.7,41z M21,21.7c1.2-2.4,2.6-4.4,4.2-6.1l3.4,6.8c-1.6,1.6-3,3.6-4.2,6.1  L21,21.7z M34.5,21.5C28.8,26.4,25,37.2,25,50s3.8,23.6,9.5,28.5c-6.6-1.9-12-14.2-12-28.5S27.8,23.4,34.5,21.5z M27.5,50  c0-14.3,5.3-26.6,12-28.5C33.8,26.4,30,37.2,30,50s3.8,23.6,9.5,28.5C32.8,76.6,27.5,64.3,27.5,50z M32.5,50  c0-14.3,5.3-26.6,12-28.5C38.8,26.4,35,37.2,35,50s3.8,23.6,9.5,28.5C37.8,76.6,32.5,64.3,32.5,50z M33,11.3l3.8,7.6  c-0.2-0.1-0.3-0.1-0.5-0.1c-2,0-4,0.7-5.8,1.9l-3.4-6.9C28.9,12.3,30.9,11.5,33,11.3z M10,50c0-19.1,6.7-35,15.6-38.2  C17.8,17.9,12.5,32.5,12.5,50c0,17.5,5.3,32.1,13.1,38.2C16.7,85,10,69.1,10,50z M15.2,55.7l16.4,32.8  C23.2,86.5,16.4,72.9,15.2,55.7z M34.5,88.7l-5.2-10.3c2.1,1.8,4.4,2.9,6.9,2.9c0.5,0,1-0.4,1.2-0.8c0.1,0,0.1,0,0.2,0.1l2.8,5.7  C38.5,87.7,36.5,88.5,34.5,88.7z M42.3,84.4l-1.6-3.1c0.2,0,0.3,0,0.5,0c0.5,0,1-0.4,1.2-0.8c0.8,0.4,1.6,0.6,2.4,0.7  C44,82.3,43.2,83.4,42.3,84.4z M47,77.3c-5.4-3.8-9.5-14.8-9.5-27.3s4-23.4,9.5-27.3c0.1,0.3,0.3,0.6,0.4,0.9  C42.9,29.1,40,38.8,40,50s2.9,20.9,7.4,26.4C47.3,76.7,47.1,77,47,77.3z M42.5,50c0-10,2.6-19,6.4-24.2C46.5,32.6,45,40.9,45,50  s1.5,17.4,3.9,24.2C45.1,69,42.5,60,42.5,50z M52.3,75.7c0-0.1-0.1-0.2-0.2-0.3c-2.9-6.8-4.6-15.7-4.6-25.5s1.8-18.6,4.6-25.5  c0.1-0.1,0.1-0.2,0.2-0.3c2.8-6.6,6.6-10.9,10.7-12.4C55.3,18,50,32.6,50,50c0,17.4,5.3,32,13,38.1C58.9,86.6,55.1,82.3,52.3,75.7z   M71.3,31.3C76,31.3,80,39.8,80,50s-4,18.8-8.8,18.8s-8.8-8.6-8.8-18.8S66.5,31.3,71.3,31.3z M60.3,45.3l-6-11.9  c0.7-3.2,1.7-6.2,2.8-8.8l5.7,11.3C61.6,38.5,60.7,41.7,60.3,45.3z M64.3,33.2l-5.8-11.6c1.2-2.4,2.6-4.4,4.2-6.1l6.7,13.5  C67.5,29.6,65.7,31.1,64.3,33.2z M52.7,55.7l16.4,32.8C60.7,86.5,53.9,72.9,52.7,55.7z M72,88.7l-19.5-39c0-4.3,0.4-8.5,1-12.4  l6.5,13c0.1,11.2,4.6,20.1,10.4,20.9l7.5,15C76.1,87.7,74.1,88.5,72,88.7z M79.9,84.4l-6.7-13.5c1.9-0.6,3.7-2,5.1-4.2L84,78.3  C82.8,80.7,81.4,82.8,79.9,84.4z M85.4,75.4l-5.7-11.3c1.2-2.6,2.1-5.8,2.5-9.4l6,11.9C87.4,69.9,86.5,72.8,85.4,75.4z M89,62.6  l-6.5-13c-0.1-11.2-4.6-20.1-10.4-20.9l-7.5-15c1.9-1.5,3.9-2.4,5.9-2.5l19.5,39C90,54.6,89.6,58.8,89,62.6z M73.4,11.5  c8.4,2,15.2,15.6,16.4,32.8L73.4,11.5z"></path></svg>